<svg width="64" height="64" viewBox="0 0 64 64" fill="none" xmlns="http://www.w3.org/2000/svg">
<path d="M34.6668 14.6667C34.6668 9.52 30.4802 5.33333 25.3335 5.33333C19.9095 5.33333 16.6668 9.39999 16.6668 13.3333H22.0002C22.0002 12.2267 23.0348 10.6667 25.3335 10.6667C27.5388 10.6667 29.3335 12.4613 29.3335 14.6667C29.3335 16.872 27.5388 18.6667 25.3335 18.6667H5.3335V24H25.3335C30.4802 24 34.6668 19.8133 34.6668 14.6667ZM41.3335 40H21.3335V45.3333H41.3335C43.5388 45.3333 45.3335 47.128 45.3335 49.3333C45.3335 51.5387 43.5388 53.3333 41.3335 53.3333C39.0348 53.3333 38.0002 51.7733 38.0002 50.6667H32.6668C32.6668 54.6 35.9095 58.6667 41.3335 58.6667C46.4802 58.6667 50.6668 54.48 50.6668 49.3333C50.6668 44.1867 46.4802 40 41.3335 40Z" fill="#1C1738"/>
<path d="M48.0002 13.3333C42.1175 13.3333 37.3335 18.1173 37.3335 24H42.6668C42.6668 21.0587 45.0588 18.6667 48.0002 18.6667C50.9415 18.6667 53.3335 21.0587 53.3335 24C53.3335 26.9413 50.9415 29.3333 48.0002 29.3333H5.3335V34.6667H48.0002C53.8828 34.6667 58.6668 29.8827 58.6668 24C58.6668 18.1173 53.8828 13.3333 48.0002 13.3333ZM5.3335 40H16.0002V45.3333H5.3335V40Z" fill="#1C1738"/>
</svg>
