<svg width="64" height="64" viewBox="0 0 64 64" fill="none" xmlns="http://www.w3.org/2000/svg">
<path d="M34.3938 23.2C34.3938 22.5635 34.141 21.953 33.6909 21.5029C33.2408 21.0529 32.6304 20.8 31.9938 20.8C31.3573 20.8 30.7469 21.0529 30.2968 21.5029C29.8467 21.953 29.5938 22.5635 29.5938 23.2L29.6002 38.864C28.2234 39.421 27.0831 40.4395 26.3748 41.7449C25.6666 43.0504 25.4344 44.5616 25.7181 46.0195C26.0018 47.4774 26.7837 48.7912 27.9299 49.7358C29.076 50.6804 30.515 51.197 32.0002 51.197C33.4855 51.197 34.9245 50.6804 36.0706 49.7358C37.2168 48.7912 37.9987 47.4774 38.2824 46.0195C38.5661 44.5616 38.3339 43.0504 37.6256 41.7449C36.9174 40.4395 35.7771 39.421 34.4002 38.864L34.3938 23.2ZM20.8002 17.6V17.5936C20.8499 14.6581 22.0509 11.8596 24.1444 9.80115C26.2379 7.74275 29.0563 6.58925 31.9922 6.58925C34.9282 6.58925 37.7466 7.74275 39.8401 9.80115C41.9336 11.8596 43.1346 14.6581 43.1842 17.5936V35.7312C44.8975 37.8444 45.9771 40.3997 46.2981 43.1011C46.619 45.8026 46.1682 48.5397 44.9977 50.9955C43.8272 53.4513 41.985 55.5253 39.6845 56.9773C37.3839 58.4293 34.7191 59.2 31.9986 59.2C29.2782 59.2 26.6134 58.4293 24.3128 56.9773C22.0123 55.5253 20.1701 53.4513 18.9996 50.9955C17.8291 48.5397 17.3783 45.8026 17.6992 43.1011C18.0201 40.3997 19.0998 37.8444 20.813 35.7312C20.813 30.1728 20.7874 22.9952 20.7874 17.6H20.8002ZM25.6002 17.5936C25.5842 24.2496 25.613 30.912 25.613 37.5712L24.973 38.2624C23.6999 39.631 22.854 41.3414 22.5391 43.1839C22.2242 45.0264 22.454 46.9207 23.2004 48.6344C23.9467 50.3482 25.1771 51.8067 26.7406 52.8311C28.3041 53.8555 30.1326 54.4012 32.0018 54.4012C33.871 54.4012 35.6996 53.8555 37.2631 52.8311C38.8266 51.8067 40.057 50.3482 40.8033 48.6344C41.5497 46.9207 41.7795 45.0264 41.4646 43.1839C41.1497 41.3414 40.3038 39.631 39.0306 38.2624L38.3874 37.5712V17.5936C38.3874 15.8979 37.7138 14.2717 36.5148 13.0726C35.3158 11.8736 33.6895 11.2 31.9938 11.2C30.2982 11.2 28.6719 11.8736 27.4729 13.0726C26.2739 14.2717 25.6002 15.8979 25.6002 17.5936Z" fill="#1C1738"/>
</svg>
