<svg width="64" height="64" viewBox="0 0 64 64" fill="none" xmlns="http://www.w3.org/2000/svg">
<path fill-rule="evenodd" clip-rule="evenodd" d="M32 42.6667C34.829 42.6667 37.5421 41.5429 39.5425 39.5425C41.5429 37.5421 42.6667 34.829 42.6667 32C42.6667 29.171 41.5429 26.4579 39.5425 24.4575C37.5421 22.4571 34.829 21.3333 32 21.3333C29.171 21.3333 26.4579 22.4571 24.4575 24.4575C22.4571 26.4579 21.3333 29.171 21.3333 32C21.3333 34.829 22.4571 37.5421 24.4575 39.5425C26.4579 41.5429 29.171 42.6667 32 42.6667ZM32 48C36.2435 48 40.3131 46.3143 43.3137 43.3137C46.3143 40.3131 48 36.2435 48 32C48 27.7565 46.3143 23.6869 43.3137 20.6863C40.3131 17.6857 36.2435 16 32 16C27.7565 16 23.6869 17.6857 20.6863 20.6863C17.6857 23.6869 16 27.7565 16 32C16 36.2435 17.6857 40.3131 20.6863 43.3137C23.6869 46.3143 27.7565 48 32 48ZM29.3333 0H34.6667V10.832C32.8958 10.6111 31.1042 10.6111 29.3333 10.832V0ZM18.9173 15.1467L11.2587 7.488L7.488 11.2587L15.1467 18.9173C16.2419 17.5086 17.5086 16.2419 18.9173 15.1467ZM10.832 29.3333H0V34.6667H10.832C10.6111 32.8958 10.6111 31.1042 10.832 29.3333ZM15.1467 45.0827L7.488 52.7413L11.2587 56.512L18.9173 48.8533C17.5086 47.7581 16.2419 46.4914 15.1467 45.0827ZM29.3333 53.168V64H34.6667V53.168C32.8958 53.3892 31.1042 53.3892 29.3333 53.168ZM45.0827 48.8533L52.7413 56.512L56.512 52.7413L48.8533 45.0827C47.7581 46.4914 46.4914 47.7581 45.0827 48.8533ZM53.168 34.6667H64V29.3333H53.168C53.3892 31.1042 53.3892 32.8958 53.168 34.6667ZM48.8533 18.9173L56.512 11.2587L52.7413 7.488L45.0827 15.1467C46.4907 16.24 47.7573 17.5093 48.8533 18.9173Z" fill="#1C1738"/>
</svg>
