<svg width="36" height="36" viewBox="0 0 36 36" fill="none" xmlns="http://www.w3.org/2000/svg">
<path d="M29.76 10.8975L18 19.5525L6.23999 10.8975M4.85249 8.0325C4.45467 8.0325 4.07314 8.19054 3.79183 8.47184C3.51053 8.75315 3.35249 9.13468 3.35249 9.5325V26.49C3.35249 26.8878 3.51053 27.2694 3.79183 27.5507C4.07314 27.832 4.45467 27.99 4.85249 27.99H31.1475C31.5453 27.99 31.9269 27.832 32.2082 27.5507C32.4895 27.2694 32.6475 26.8878 32.6475 26.49V9.51C32.6475 9.11218 32.4895 8.73065 32.2082 8.44934C31.9269 8.16804 31.5453 8.01 31.1475 8.01H4.85249V8.0325Z" stroke="#E94E1B" stroke-linecap="round" stroke-linejoin="round"/>
</svg>
