<svg width="36" height="36" viewBox="0 0 36 36" fill="none" xmlns="http://www.w3.org/2000/svg">
<path d="M10.1925 14.445V11.175C10.1925 9.10611 11.0144 7.12196 12.4773 5.65904C13.9402 4.19611 15.9244 3.37425 17.9932 3.37425C20.0621 3.37425 22.0463 4.19611 23.5092 5.65904C24.9721 7.12196 25.794 9.10611 25.794 11.175V14.445M7.6275 14.445H28.3725C28.7502 14.4454 29.1122 14.5957 29.3792 14.8629C29.6461 15.1301 29.796 15.4923 29.796 15.87V31.2C29.796 31.5778 29.646 31.9401 29.3789 32.2074C29.1118 32.4746 28.7495 32.6248 28.3717 32.625H7.62825C7.25031 32.625 6.88786 32.4749 6.62062 32.2076C6.35338 31.9404 6.20325 31.5779 6.20325 31.2V15.87C6.20325 15.4921 6.35338 15.1296 6.62062 14.8624C6.88786 14.5951 7.25031 14.445 7.62825 14.445H7.6275Z" stroke="#E94E1B" stroke-width="0.75" stroke-linecap="round" stroke-linejoin="round"/>
<path d="M17.9932 26.5605C19.6642 26.5605 21.0187 25.2059 21.0187 23.535C21.0187 21.8641 19.6642 20.5095 17.9932 20.5095C16.3223 20.5095 14.9677 21.8641 14.9677 23.535C14.9677 25.2059 16.3223 26.5605 17.9932 26.5605Z" stroke="#E94E1B" stroke-width="0.75" stroke-linecap="round" stroke-linejoin="round"/>
</svg>
