<svg width="20" height="20" viewBox="0 0 20 20" fill="none" xmlns="http://www.w3.org/2000/svg">
<path d="M15.5555 16.6667H3.33328V4.44449H10.6777L11.7888 3.33337H3.33328C3.03859 3.33337 2.75598 3.45044 2.5476 3.65881C2.33923 3.86718 2.22217 4.1498 2.22217 4.44449V16.6667C2.22217 16.9614 2.33923 17.244 2.5476 17.4524C2.75598 17.6608 3.03859 17.7778 3.33328 17.7778H15.5555C15.8502 17.7778 16.1328 17.6608 16.3412 17.4524C16.5496 17.244 16.6666 16.9614 16.6666 16.6667V8.33337L15.5555 9.44449V16.6667Z" fill="#1C1738"/>
<path d="M18.6277 3.24444L16.7555 1.37222C16.6724 1.2889 16.5737 1.2228 16.465 1.1777C16.3564 1.13259 16.2399 1.10937 16.1222 1.10938C16.0045 1.10938 15.888 1.13259 15.7793 1.1777C15.6707 1.2228 15.5719 1.2889 15.4889 1.37222L7.87218 9.03333L7.25552 11.7056C7.22925 11.8351 7.23201 11.9688 7.26361 12.0972C7.2952 12.2255 7.35485 12.3452 7.43825 12.4478C7.52166 12.5503 7.62675 12.6331 7.74597 12.6901C7.86519 12.7472 7.99557 12.7771 8.12774 12.7778C8.19605 12.7853 8.26498 12.7853 8.3333 12.7778L11.0277 12.1833L18.6277 4.51111C18.7111 4.42802 18.7772 4.32931 18.8223 4.22063C18.8674 4.11195 18.8906 3.99544 18.8906 3.87777C18.8906 3.76011 18.8674 3.6436 18.8223 3.53492C18.7772 3.42624 18.7111 3.32753 18.6277 3.24444ZM10.45 11.1556L8.41663 11.6056L8.88885 9.58889L14.6222 3.81666L16.1889 5.38333L10.45 11.1556ZM16.8166 4.75555L15.25 3.18889L16.1111 2.31111L17.6889 3.88889L16.8166 4.75555Z" fill="#1C1738"/>
</svg>
