<svg width="24" height="24" viewBox="0 0 24 24" fill="none" xmlns="http://www.w3.org/2000/svg">
<path d="M3.59998 5.99998C3.59998 5.36346 3.85283 4.75301 4.30292 4.30292C4.75301 3.85283 5.36346 3.59998 5.99998 3.59998H18C18.6365 3.59998 19.2469 3.85283 19.697 4.30292C20.1471 4.75301 20.4 5.36346 20.4 5.99998V18C20.4 18.6365 20.1471 19.2469 19.697 19.697C19.2469 20.1471 18.6365 20.4 18 20.4H5.99998C5.36346 20.4 4.75301 20.1471 4.30292 19.697C3.85283 19.2469 3.59998 18.6365 3.59998 18V5.99998ZM5.99998 4.79998C5.68172 4.79998 5.37649 4.9264 5.15145 5.15145C4.9264 5.37649 4.79998 5.68172 4.79998 5.99998V18C4.79998 18.3182 4.9264 18.6235 5.15145 18.8485C5.37649 19.0735 5.68172 19.2 5.99998 19.2H18C18.3182 19.2 18.6235 19.0735 18.8485 18.8485C19.0735 18.6235 19.2 18.3182 19.2 18V5.99998C19.2 5.68172 19.0735 5.37649 18.8485 5.15145C18.6235 4.9264 18.3182 4.79998 18 4.79998H5.99998ZM12 7.19998C12.1591 7.19998 12.3117 7.26319 12.4242 7.37571C12.5368 7.48823 12.6 7.64084 12.6 7.79997V11.4H16.2C16.3591 11.4 16.5117 11.4632 16.6242 11.5757C16.7368 11.6882 16.8 11.8408 16.8 12C16.8 12.1591 16.7368 12.3117 16.6242 12.4242C16.5117 12.5368 16.3591 12.6 16.2 12.6H12.6V16.2C12.6 16.3591 12.5368 16.5117 12.4242 16.6242C12.3117 16.7368 12.1591 16.8 12 16.8C11.8408 16.8 11.6882 16.7368 11.5757 16.6242C11.4632 16.5117 11.4 16.3591 11.4 16.2V12.6H7.79998C7.64085 12.6 7.48823 12.5368 7.37571 12.4242C7.26319 12.3117 7.19998 12.1591 7.19998 12C7.19998 11.8408 7.26319 11.6882 7.37571 11.5757C7.48823 11.4632 7.64085 11.4 7.79998 11.4H11.4V7.79997C11.4 7.64084 11.4632 7.48823 11.5757 7.37571C11.6882 7.26319 11.8408 7.19998 12 7.19998Z" fill="#E94E1B"/>
</svg>
