<svg width="26" height="26" viewBox="0 0 26 26" fill="none" xmlns="http://www.w3.org/2000/svg">
<path d="M19.9098 5.35449L20.6451 6.09029L12.8503 13.8851L12.115 13.1498L19.9098 5.35449Z" fill="#1C1738"/>
<path d="M20.8 10.4H19.76V6.23995H15.6V5.19995H20.8V10.4ZM18.2 19.76H7.79999C6.91599 19.76 6.23999 19.084 6.23999 18.2V7.79995C6.23999 6.91595 6.91599 6.23995 7.79999 6.23995H13.52V7.27995H7.79999C7.48799 7.27995 7.27999 7.48795 7.27999 7.79995V18.2C7.27999 18.512 7.48799 18.72 7.79999 18.72H18.2C18.512 18.72 18.72 18.512 18.72 18.2V12.48H19.76V18.2C19.76 19.084 19.084 19.76 18.2 19.76Z" fill="#1C1738"/>
</svg>
