<svg width="54" height="54" viewBox="0 0 54 54" fill="none" xmlns="http://www.w3.org/2000/svg">
<rect width="54" height="49.0909" rx="5" fill="#E94E1B"/>
<path d="M39.9727 22.5531H27.2707V27.7738H34.527C34.2141 29.4613 33.2648 30.8887 31.834 31.8449C30.6246 32.6535 29.0813 33.1316 27.2672 33.1316C23.7551 33.1316 20.7844 30.7586 19.7227 27.5699C19.4555 26.7613 19.3008 25.8965 19.3008 25.007C19.3008 24.1176 19.4555 23.2527 19.7227 22.4441C20.7879 19.259 23.7586 16.8859 27.2707 16.8859C29.25 16.8859 31.0254 17.568 32.4246 18.9039L36.2918 15.0332C33.9539 12.8535 30.9059 11.5176 27.2707 11.5176C22.0008 11.5176 17.441 14.541 15.2227 18.9496C14.3086 20.7707 13.7883 22.8309 13.7883 25.0105C13.7883 27.1902 14.3086 29.2469 15.2227 31.068C17.441 35.4766 22.0008 38.5 27.2707 38.5C30.9129 38.5 33.9645 37.2906 36.1934 35.2305C38.7422 32.882 40.2152 29.4227 40.2152 25.3129C40.2152 24.3566 40.1309 23.4391 39.9727 22.5531Z" fill="#F7F0F5"/>
</svg>
