<svg width="36" height="36" viewBox="0 0 36 36" fill="none" xmlns="http://www.w3.org/2000/svg">
<path fill-rule="evenodd" clip-rule="evenodd" d="M19.0605 3.43948C18.7792 3.15828 18.3977 3.00031 18 3.00031C17.6023 3.00031 17.2208 3.15828 16.9395 3.43948L13.9395 6.43949C13.6663 6.72239 13.5151 7.10129 13.5185 7.49459C13.5219 7.88788 13.6797 8.2641 13.9578 8.54221C14.2359 8.82032 14.6121 8.97808 15.0054 8.9815C15.3987 8.98491 15.7776 8.83372 16.0605 8.56048L16.5 8.12099V12.2145C16.5 12.924 17.172 13.5 18 13.5C18.828 13.5 19.5 12.924 19.5 12.2145V8.12099L19.9395 8.56048C20.0779 8.70375 20.2434 8.81802 20.4264 8.89664C20.6094 8.97525 20.8062 9.01663 21.0054 9.01836C21.2046 9.02009 21.4021 8.98214 21.5864 8.90672C21.7708 8.8313 21.9383 8.71992 22.0791 8.57908C22.2199 8.43824 22.3313 8.27076 22.4067 8.08642C22.4822 7.90207 22.5201 7.70455 22.5184 7.50538C22.5166 7.30621 22.4753 7.10938 22.3967 6.92638C22.318 6.74337 22.2038 6.57786 22.0605 6.43949L19.0605 3.43948ZM8.454 16.575C8.7369 16.8482 9.11581 16.9994 9.5091 16.996C9.9024 16.9926 10.2786 16.8348 10.5567 16.5567C10.8348 16.2786 10.9926 15.9024 10.996 15.5091C10.9994 15.1158 10.8482 14.7369 10.575 14.454L9.5145 13.3935C9.2316 13.1202 8.85269 12.9691 8.4594 12.9725C8.0661 12.9759 7.68988 13.1336 7.41177 13.4118C7.13366 13.6899 6.97591 14.0661 6.97249 14.4594C6.96907 14.8527 7.12026 15.2316 7.3935 15.5145L8.454 16.575ZM28.6065 15.5145L27.546 16.575C27.2631 16.8482 26.8842 16.9994 26.4909 16.996C26.0976 16.9926 25.7214 16.8348 25.4433 16.5567C25.1652 16.2786 25.0074 15.9024 25.004 15.5091C25.0006 15.1158 25.1518 14.7369 25.425 14.454L26.4855 13.3935C26.7684 13.1202 27.1473 12.9691 27.5406 12.9725C27.9339 12.9759 28.3101 13.1336 28.5882 13.4118C28.8663 13.6899 29.0241 14.0661 29.0275 14.4594C29.0309 14.8527 28.8797 15.2316 28.6065 15.5145ZM12 24C12.0001 22.9974 12.2513 22.0108 12.7309 21.1304C13.2105 20.2499 13.903 19.5037 14.7452 18.9598C15.5875 18.416 16.5526 18.0918 17.5524 18.017C18.5522 17.9422 19.5548 18.1192 20.4686 18.5317C21.3823 18.9441 22.1782 19.579 22.7834 20.3783C23.3887 21.1776 23.7839 22.1158 23.9332 23.1072C24.0824 24.0987 23.9808 25.1117 23.6377 26.0537C23.2946 26.9957 22.7209 27.8368 21.969 28.5H14.031C13.3917 27.9376 12.8799 27.2453 12.5296 26.4693C12.1794 25.6933 11.9988 24.8514 12 24ZM13.455 31.5H31.5C31.8978 31.5 32.2794 31.342 32.5607 31.0606C32.842 30.7793 33 30.3978 33 30C33 29.6022 32.842 29.2206 32.5607 28.9393C32.2794 28.658 31.8978 28.5 31.5 28.5H25.7955C26.5849 27.1318 27.0003 25.5799 27 24.0003C26.9997 22.4207 26.5836 20.869 25.7936 19.5011C25.0036 18.1332 23.8675 16.9974 22.4994 16.2076C21.1314 15.4179 19.5796 15.0022 18 15.0022C16.4204 15.0022 14.8686 15.4179 13.5006 16.2076C12.1325 16.9974 10.9964 18.1332 10.2064 19.5011C9.41641 20.869 9.00033 22.4207 9 24.0003C8.99967 25.5799 9.41508 27.1318 10.2045 28.5H4.5C4.10218 28.5 3.72064 28.658 3.43934 28.9393C3.15804 29.2206 3 29.6022 3 30C3 30.3978 3.15804 30.7793 3.43934 31.0606C3.72064 31.342 4.10218 31.5 4.5 31.5H13.455ZM6 25.5C6.39782 25.5 6.77936 25.342 7.06066 25.0606C7.34196 24.7793 7.5 24.3978 7.5 24C7.5 23.6022 7.34196 23.2206 7.06066 22.9393C6.77936 22.658 6.39782 22.5 6 22.5H4.5C4.10218 22.5 3.72064 22.658 3.43934 22.9393C3.15804 23.2206 3 23.6022 3 24C3 24.3978 3.15804 24.7793 3.43934 25.0606C3.72064 25.342 4.10218 25.5 4.5 25.5H6ZM33 24C33 24.3978 32.842 24.7793 32.5607 25.0606C32.2794 25.342 31.8978 25.5 31.5 25.5H30C29.6022 25.5 29.2206 25.342 28.9393 25.0606C28.658 24.7793 28.5 24.3978 28.5 24C28.5 23.6022 28.658 23.2206 28.9393 22.9393C29.2206 22.658 29.6022 22.5 30 22.5H31.5C31.8978 22.5 32.2794 22.658 32.5607 22.9393C32.842 23.2206 33 23.6022 33 24Z" fill="#1C1738"/>
</svg>
