<svg width="36" height="36" viewBox="0 0 36 36" fill="none" xmlns="http://www.w3.org/2000/svg">
<path fill-rule="evenodd" clip-rule="evenodd" d="M12 24C12.0001 22.9974 12.2513 22.0108 12.7309 21.1304C13.2105 20.2499 13.903 19.5037 14.7452 18.9598C15.5875 18.416 16.5526 18.0918 17.5524 18.017C18.5522 17.9423 19.5548 18.1192 20.4686 18.5317C21.3823 18.9442 22.1782 19.579 22.7834 20.3783C23.3887 21.1776 23.7839 22.1158 23.9332 23.1073C24.0824 24.0987 23.9808 25.1117 23.6377 26.0537C23.2946 26.9958 22.7209 27.8368 21.969 28.5H14.031C13.3917 27.9377 12.8799 27.2453 12.5296 26.4693C12.1794 25.6933 11.9988 24.8514 12 24ZM13.455 31.5H31.5C31.8978 31.5 32.2794 31.342 32.5607 31.0607C32.842 30.7794 33 30.3978 33 30C33 29.6022 32.842 29.2206 32.5607 28.9393C32.2794 28.658 31.8978 28.5 31.5 28.5H25.7955C26.5849 27.1318 27.0003 25.5799 27 24.0003C26.9997 22.4207 26.5836 20.869 25.7936 19.5011C25.0036 18.1332 23.8675 16.9974 22.4994 16.2077C21.1314 15.4179 19.5796 15.0022 18 15.0022C16.4204 15.0022 14.8686 15.4179 13.5006 16.2077C12.1325 16.9974 10.9964 18.1332 10.2064 19.5011C9.41641 20.869 9.00033 22.4207 9 24.0003C8.99967 25.5799 9.41508 27.1318 10.2045 28.5H4.5C4.10218 28.5 3.72064 28.658 3.43934 28.9393C3.15804 29.2206 3 29.6022 3 30C3 30.3978 3.15804 30.7794 3.43934 31.0607C3.72064 31.342 4.10218 31.5 4.5 31.5H13.455ZM28.6065 13.3935C28.8877 13.6748 29.0457 14.0563 29.0457 14.454C29.0457 14.8517 28.8877 15.2332 28.6065 15.5145L27.546 16.575C27.2631 16.8482 26.8842 16.9994 26.4909 16.996C26.0976 16.9926 25.7214 16.8348 25.4433 16.5567C25.1652 16.2786 25.0074 15.9024 25.004 15.5091C25.0006 15.1158 25.1518 14.7369 25.425 14.454L26.4855 13.3935C26.7668 13.1123 27.1483 12.9543 27.546 12.9543C27.9437 12.9543 28.3252 13.1123 28.6065 13.3935ZM6 25.5C6.39782 25.5 6.77936 25.342 7.06066 25.0607C7.34196 24.7794 7.5 24.3978 7.5 24C7.5 23.6022 7.34196 23.2206 7.06066 22.9393C6.77936 22.658 6.39782 22.5 6 22.5H4.5C4.10218 22.5 3.72064 22.658 3.43934 22.9393C3.15804 23.2206 3 23.6022 3 24C3 24.3978 3.15804 24.7794 3.43934 25.0607C3.72064 25.342 4.10218 25.5 4.5 25.5H6ZM33 24C33 24.3978 32.842 24.7794 32.5607 25.0607C32.2794 25.342 31.8978 25.5 31.5 25.5H30C29.6022 25.5 29.2206 25.342 28.9393 25.0607C28.658 24.7794 28.5 24.3978 28.5 24C28.5 23.6022 28.658 23.2206 28.9393 22.9393C29.2206 22.658 29.6022 22.5 30 22.5H31.5C31.8978 22.5 32.2794 22.658 32.5607 22.9393C32.842 23.2206 33 23.6022 33 24ZM8.454 16.575C8.7369 16.8482 9.11581 16.9994 9.5091 16.996C9.9024 16.9926 10.2786 16.8348 10.5567 16.5567C10.8348 16.2786 10.9926 15.9024 10.996 15.5091C10.9994 15.1158 10.8482 14.7369 10.575 14.454L9.5145 13.3935C9.37613 13.2502 9.21061 13.136 9.02761 13.0573C8.8446 12.9787 8.64777 12.9374 8.4486 12.9356C8.24943 12.9339 8.05191 12.9718 7.86757 13.0473C7.68322 13.1227 7.51575 13.2341 7.37491 13.3749C7.23407 13.5157 7.12269 13.6832 7.04727 13.8676C6.97185 14.0519 6.93389 14.2494 6.93562 14.4486C6.93736 14.6478 6.97873 14.8446 7.05735 15.0276C7.13596 15.2106 7.25023 15.3761 7.3935 15.5145L8.454 16.575ZM19.5 8.379V4.5C19.5 4.10218 19.342 3.72064 19.0607 3.43934C18.7794 3.15804 18.3978 3 18 3C17.6022 3 17.2206 3.15804 16.9393 3.43934C16.658 3.72064 16.5 4.10218 16.5 4.5V8.379L16.0605 7.9395C15.7776 7.66626 15.3987 7.51507 15.0054 7.51849C14.6121 7.52191 14.2359 7.67966 13.9578 7.95777C13.6797 8.23588 13.5219 8.6121 13.5185 9.0054C13.5151 9.39869 13.6663 9.7776 13.9395 10.0605L16.938 13.059L16.953 13.074C17.2352 13.3507 17.6154 13.5044 18.0106 13.5016C18.4058 13.4988 18.7838 13.3396 19.062 13.059L22.062 10.0605C22.3433 9.77904 22.5012 9.39738 22.5011 8.99947C22.5009 8.60156 22.3427 8.22001 22.0613 7.93875C21.7798 7.65749 21.3981 7.49956 21.0002 7.4997C20.6023 7.49984 20.2208 7.65804 19.9395 7.9395L19.5 8.379Z" fill="#1C1738"/>
</svg>
