<svg width="96" height="96" viewBox="0 0 96 96" fill="none" xmlns="http://www.w3.org/2000/svg">
<path d="M24.6079 42.24C24.6079 39.072 25.2159 36.032 26.4639 33.12C27.7119 30.208 29.3759 27.744 31.4879 25.664C33.5999 23.584 36.0959 21.92 38.9759 20.672C41.8559 19.424 44.8959 18.816 48.0639 18.816C51.2319 18.816 54.2719 19.424 57.1839 20.672C60.0639 21.92 62.5599 23.584 64.6399 25.664C66.7199 27.744 68.3839 30.24 69.6319 33.12C70.8799 36 71.4879 39.04 71.4879 42.24C71.4879 47.424 69.9519 52.032 66.8799 56.128C63.9183 60.1107 59.757 63.0381 55.0079 64.48V75.008H41.4399V64.608C36.5119 63.168 32.4479 60.384 29.3119 56.256C26.1759 52.128 24.6079 47.456 24.6079 42.24ZM29.7599 42.24C29.7599 47.2 31.5519 51.456 35.1679 55.008C38.7199 58.592 43.0079 60.384 48.0319 60.384C51.3279 60.384 54.3999 59.584 57.1839 57.952C59.949 56.3601 62.2535 54.0776 63.8719 51.328C65.5039 48.544 66.3359 45.504 66.3359 42.208C66.3359 39.744 65.8559 37.408 64.8959 35.136C63.9359 32.864 62.6239 30.944 60.9919 29.312C59.3599 27.68 57.4079 26.368 55.1359 25.408C52.9006 24.4534 50.4945 23.9634 48.0639 23.968C45.5999 23.968 43.2639 24.448 40.9919 25.408C36.5942 27.2424 33.0983 30.7383 31.2639 35.136C30.2399 37.44 29.7599 39.776 29.7599 42.24ZM31.6159 43.392V41.088H38.5599V43.392H31.6159ZM35.1039 32.064L36.7679 30.4L41.6319 35.264L39.9679 36.96L35.1039 32.064ZM43.1999 47.84C43.1999 46.496 43.6799 45.344 44.6079 44.352C45.5359 43.36 46.6879 42.848 47.9999 42.816L56.7359 28.448L58.8479 29.568L52.3839 45.024C52.9599 45.824 53.2159 46.752 53.2159 47.84C53.2159 49.248 52.7359 50.432 51.7439 51.392C50.7519 52.352 49.5679 52.832 48.1599 52.832C46.7839 52.832 45.5999 52.352 44.6399 51.392C43.6799 50.432 43.1999 49.248 43.1999 47.84ZM47.3919 32.896V25.984H49.5999V32.928H47.3919V32.896ZM56.7999 43.36V40.992H63.7439V43.36H56.7999Z" fill="#1C1738"/>
</svg>
