<svg width="48" height="53" viewBox="0 0 48 53" fill="none" xmlns="http://www.w3.org/2000/svg">
<path d="M43.5 22.9749H38.4375V17.0966C38.4375 16.1807 37.7672 15.4408 36.9375 15.4408H22.1719L16.6734 9.63496C16.6035 9.56266 16.5115 9.52203 16.4156 9.52112H4.5C3.67031 9.52112 3 10.2611 3 11.177V41.8101C3 42.726 3.67031 43.4659 4.5 43.4659H37.2188C37.8281 43.4659 38.3813 43.0571 38.6109 42.431L44.8922 25.2516C44.9625 25.055 45 24.8429 45 24.6307C45 23.7148 44.3297 22.9749 43.5 22.9749ZM6.375 13.2468H15.2109L20.8172 19.1664H35.0625V22.9749H11.1562C10.5469 22.9749 9.99375 23.3836 9.76406 24.0098L6.375 33.2825V13.2468ZM36.1547 39.7403H7.45312L12.2953 26.4935H41.0016L36.1547 39.7403Z" fill="#E94E1B"/>
</svg>
