<svg width="48" height="53" viewBox="0 0 48 53" fill="none" xmlns="http://www.w3.org/2000/svg">
<path d="M34 41.948H12C7.588 41.948 4 37.9873 4 33.1169C4.00206 31.159 4.59241 29.2573 5.67854 27.7095C6.76467 26.1617 8.28523 25.0554 10.002 24.5639L10 24.2857C10 16.9801 15.382 11.039 22 11.039C24.485 11.0344 26.9093 11.886 28.9349 13.475C30.9606 15.064 32.4865 17.3112 33.3 19.9032C39.184 19.3601 44 24.5683 44 30.9091C44 36.996 39.514 41.948 34 41.948ZM11.81 28.688C9.794 28.7013 8 30.6817 8 33.1169C8 35.5521 9.794 37.5325 12 37.5325H34C37.308 37.5325 40 34.5608 40 30.9091C40 27.2574 37.308 24.2857 34 24.2857C33.514 24.2857 33 24.3762 32.38 24.5727L30.23 25.2505L29.858 22.8153C29.5524 20.7587 28.5941 18.889 27.1546 17.5406C25.715 16.1921 23.888 15.4527 22 15.4545C20.8121 15.4558 19.6393 15.7488 18.5667 16.3122C17.494 16.8757 16.5484 17.6955 15.7983 18.7123C15.0481 19.7291 14.5123 20.9174 14.2297 22.1911C13.947 23.4647 13.9246 24.7918 14.164 26.0762L14.652 28.7234L11.81 28.688Z" fill="#E94E1B"/>
</svg>
